<svg xmlns="http://www.w3.org/2000/svg" width="18" height="19" viewBox="0 0 18 19" fill="none">
  <path fill-rule="evenodd" clip-rule="evenodd" d="M3 1.96553C2.39309 1.96553 2 2.40881 2 2.8391V15.8334C2 16.3762 1.55228 16.8162 1 16.8162C0.447715 16.8162 0 16.3762 0 15.8334V2.8391C0 1.21894 1.39777 0 3 0H16.4C17.2291 0 18 0.637194 18 1.53967V13.7119C18 14.2547 17.5523 14.6947 17 14.6947C16.4477 14.6947 16 14.2547 16 13.7119V1.96553H3Z" fill="#CCA6F4"/>
  <path fill-rule="evenodd" clip-rule="evenodd" d="M2 13.9769C2 13.4341 2.44772 12.9941 3 12.9941H17C17.5523 12.9941 18 13.4341 18 13.9769C18 14.5197 17.5523 14.9597 17 14.9597H3C2.44772 14.9597 2 14.5197 2 13.9769Z" fill="#CCA6F4"/>
  <path fill-rule="evenodd" clip-rule="evenodd" d="M2 17.6898C2 17.147 2.44772 16.707 3 16.707H17C17.5523 16.707 18 17.147 18 17.6898C18 18.2326 17.5523 18.6726 17 18.6726H3C2.44772 18.6726 2 18.2326 2 17.6898Z" fill="#CCA6F4"/>
  <path fill-rule="evenodd" clip-rule="evenodd" d="M3 14.9597C2.39308 14.9597 2 15.4029 2 15.8332C2 16.2635 2.39308 16.7068 3 16.7068C3.55228 16.7068 4 17.1468 4 17.6896C4 18.2323 3.55228 18.6723 3 18.6723C1.39778 18.6723 0 17.4534 0 15.8332C0 14.213 1.39778 12.9941 3 12.9941C3.55228 12.9941 4 13.4341 4 13.9769C4 14.5197 3.55228 14.9597 3 14.9597Z" fill="#CCA6F4"/>
  <path fill-rule="evenodd" clip-rule="evenodd" d="M5 4.69566C5 4.15289 5.44772 3.71289 6 3.71289H12C12.5523 3.71289 13 4.15289 13 4.69566C13 5.23842 12.5523 5.67842 12 5.67842H6C5.44772 5.67842 5 5.23842 5 4.69566Z" fill="#CCA6F4"/>
</svg>