<svg width="23" height="20" viewBox="0 0 23 20" fill="none" xmlns="http://www.w3.org/2000/svg">
<path d="M20.0107 0H3.08279C2.52205 0 1.98247 0.21 1.59102 0.59C1.18898 0.96 0.966797 1.47 0.966797 2V14C0.966797 14.53 1.18898 15.04 1.59102 15.41C1.98247 15.79 2.52205 16 3.08279 16H7.31478L11.5468 20L15.7788 16H20.0107C20.5715 16 21.1111 15.79 21.5025 15.41C21.894 15.03 22.1267 14.53 22.1267 14V2C22.1267 1.47 21.9046 0.96 21.5025 0.59C21.1111 0.21 20.5715 0 20.0107 0ZM9.48367 4.04C10.055 3.68 10.8062 3.5 11.7478 3.5C12.7423 3.5 13.5358 3.71 14.1071 4.12C14.6784 4.54 14.9641 5.1 14.9641 5.8C14.9641 6.24 14.8054 6.63 14.4986 7C14.1918 7.36 13.7897 7.64 13.303 7.85C13.028 8 12.8481 8.15 12.7529 8.32C12.6577 8.5 12.6048 8.72 12.6048 9H10.4888C10.4888 8.5 10.5946 8.16 10.7956 7.92C11.0178 7.68 11.3775 7.4 11.9276 7.08C12.2027 6.94 12.4249 6.76 12.6048 6.54C12.7529 6.33 12.8375 6.08 12.8375 5.8C12.8375 5.5 12.7423 5.28 12.5519 5.11C12.3614 4.93 12.0758 4.85 11.7478 4.85C11.4621 4.85 11.2294 4.92 11.0178 5.06C10.8485 5.2 10.7427 5.41 10.7427 5.69H8.65844C8.60554 5 8.90177 4.4 9.48367 4.04ZM10.4888 12V10H12.6048V12H10.4888Z" fill="#CCA6F4"/>
</svg>
