<svg width="21" height="20" viewBox="0 0 21 20" fill="none" xmlns="http://www.w3.org/2000/svg">
<path d="M10.8594 20C10.6183 20 10.387 19.9042 10.2166 19.7337C10.0461 19.5632 9.95028 19.332 9.95028 19.0909V16.3636H6.31392C5.83171 16.3636 5.36925 16.1721 5.02827 15.8311C4.6873 15.4901 4.49574 15.0277 4.49574 14.5455V5.45455C4.49574 4.44545 5.31392 3.63636 6.31392 3.63636H19.0412C19.5234 3.63636 19.9859 3.82792 20.3268 4.1689C20.6678 4.50987 20.8594 4.97233 20.8594 5.45455V14.5455C20.8594 15.0277 20.6678 15.4901 20.3268 15.8311C19.9859 16.1721 19.5234 16.3636 19.0412 16.3636H15.3139L11.9503 19.7364C11.7685 19.9091 11.5412 20 11.3139 20H10.8594ZM11.7685 14.5455V17.3455L14.5685 14.5455H19.0412V5.45455H6.31392V14.5455H11.7685ZM2.67756 12.7273H0.859375V1.81818C0.859375 1.33597 1.05093 0.873508 1.39191 0.532533C1.73288 0.191558 2.19535 0 2.67756 0H17.223V1.81818H2.67756V12.7273Z" fill="#CCA6F4"/>
</svg>
