<svg width="450" height="451" viewBox="0 0 450 451" fill="none" xmlns="http://www.w3.org/2000/svg">
<path d="M310.015 156.414C310.015 242.249 240.726 311.828 155.257 311.828C150.401 311.828 145.597 311.603 140.855 311.164C140.28 305.717 139.985 300.186 139.985 294.586C139.985 208.751 209.274 139.172 294.743 139.172C299.599 139.172 304.403 139.397 309.145 139.836C309.72 145.283 310.015 150.814 310.015 156.414ZM155.257 1C234.803 1 300.334 61.2701 309.034 138.822C304.328 138.392 299.561 138.172 294.743 138.172C208.718 138.172 138.985 208.203 138.985 294.586C138.985 300.152 139.275 305.65 139.839 311.066C61.6094 303.296 0.5 237.023 0.5 156.414C0.5 70.5792 69.7892 1 155.257 1ZM310.161 139.934C388.391 147.704 449.5 213.977 449.5 294.586C449.5 380.421 380.211 450 294.743 450C215.197 450 149.666 389.73 140.966 312.178C145.672 312.608 150.439 312.828 155.257 312.828C241.282 312.828 311.015 242.797 311.015 156.414C311.015 150.848 310.725 145.35 310.161 139.934Z" stroke="#DBCDCD"/>
</svg>
