<svg width="329" height="620" viewBox="0 0 329 620" fill="none" xmlns="http://www.w3.org/2000/svg">
<mask id="path-1-inside-1_11_120" fill="white">
<path d="M328.145 0C285.09 -4.85459e-07 242.457 8.01839 202.68 23.5973C162.902 39.1763 126.76 62.0107 96.3157 90.7969C65.8715 119.583 41.7219 153.757 25.2456 191.368C8.7693 228.979 0.289061 269.29 0.289063 310C0.289064 350.71 8.7693 391.021 25.2456 428.632C41.7219 466.243 65.8715 500.417 96.3158 529.203C126.76 557.989 162.902 580.824 202.68 596.403C242.457 611.982 285.09 620 328.145 620L328.145 310L328.145 0Z"/>
</mask>
<path d="M328.145 0C285.09 -4.85459e-07 242.457 8.01839 202.68 23.5973C162.902 39.1763 126.76 62.0107 96.3157 90.7969C65.8715 119.583 41.7219 153.757 25.2456 191.368C8.7693 228.979 0.289061 269.29 0.289063 310C0.289064 350.71 8.7693 391.021 25.2456 428.632C41.7219 466.243 65.8715 500.417 96.3158 529.203C126.76 557.989 162.902 580.824 202.68 596.403C242.457 611.982 285.09 620 328.145 620L328.145 310L328.145 0Z" stroke="#E3DFFD" stroke-width="6" stroke-dasharray="2 2" mask="url(#path-1-inside-1_11_120)"/>
</svg>
