<svg width="532" height="1221" viewBox="0 0 532 1221" fill="none" xmlns="http://www.w3.org/2000/svg">
<mask id="path-1-inside-1_11_449" fill="white">
<path d="M0.5 1221C70.2975 1221 139.412 1205.21 203.896 1174.53C268.381 1143.85 326.973 1098.88 376.327 1042.19C425.682 985.498 464.832 918.197 491.542 844.128C518.252 770.059 532 690.672 532 610.5C532 530.328 518.252 450.941 491.542 376.872C464.832 302.802 425.682 235.501 376.327 178.811C326.973 122.121 268.381 77.152 203.896 46.4715C139.412 15.791 70.2974 -2.26189e-05 0.499878 0L0.5 610.5V1221Z"/>
</mask>
<path d="M0.5 1221C70.2975 1221 139.412 1205.21 203.896 1174.53C268.381 1143.85 326.973 1098.88 376.327 1042.19C425.682 985.498 464.832 918.197 491.542 844.128C518.252 770.059 532 690.672 532 610.5C532 530.328 518.252 450.941 491.542 376.872C464.832 302.802 425.682 235.501 376.327 178.811C326.973 122.121 268.381 77.152 203.896 46.4715C139.412 15.791 70.2974 -2.26189e-05 0.499878 0L0.5 610.5V1221Z" stroke="#E3DFFD" stroke-width="6" stroke-dasharray="2 2" mask="url(#path-1-inside-1_11_449)"/>
</svg>
