<svg width="21" height="20" viewBox="0 0 21 20" fill="none" xmlns="http://www.w3.org/2000/svg">
<path d="M10.8594 0C5.32937 0 0.859375 4.5 0.859375 10C0.859375 12.6522 1.91294 15.1957 3.78831 17.0711C4.71689 17.9997 5.81928 18.7362 7.03254 19.2388C8.2458 19.7413 9.54616 20 10.8594 20C13.5115 20 16.0551 18.9464 17.9304 17.0711C19.8058 15.1957 20.8594 12.6522 20.8594 10C20.8594 8.68678 20.6007 7.38642 20.0982 6.17317C19.5956 4.95991 18.859 3.85752 17.9304 2.92893C17.0019 2.00035 15.8995 1.26375 14.6862 0.761205C13.473 0.258658 12.1726 0 10.8594 0ZM8.60938 5.82C9.47938 5.82 10.3094 6.23 10.8594 6.87C11.4094 6.23 12.2394 5.82 13.1094 5.82C14.6494 5.82 15.8594 7.03 15.8594 8.57C15.8594 10.46 14.1594 12 11.5794 14.34L10.8594 15L10.1394 14.34C7.55937 12 5.85938 10.46 5.85938 8.57C5.85938 7.03 7.06938 5.82 8.60938 5.82Z" fill="#CCA6F4"/>
</svg>
