<svg width="123" height="23" viewBox="0 0 123 23" fill="none" xmlns="http://www.w3.org/2000/svg">
<path d="M18.95 8.38C17.35 7.52 15.78 6.92 14.24 6.58L11.15 22H4.07L7.19 6.43C5.37 6.73 3.66 7.34 2.06 8.26L0.32 3.16C1.7 2.32 3.38 1.67 5.36 1.21C7.34 0.749999 9.32 0.519999 11.3 0.519999C13.34 0.519999 15.28 0.769999 17.12 1.27C18.98 1.75 20.6 2.43 21.98 3.31L18.95 8.38ZM32.9848 5.92C31.7248 5.92 30.7848 6.09 30.1648 6.43C29.5448 6.75 29.2348 7.19 29.2348 7.75C29.2348 8.45 29.9348 8.8 31.3348 8.8H37.0948L36.0448 14.02H29.1148C28.4148 14.02 27.8448 14.16 27.4048 14.44C26.9848 14.7 26.7748 15.07 26.7748 15.55C26.7748 16.05 27.0848 16.43 27.7048 16.69C28.3248 16.95 29.3248 17.08 30.7048 17.08C31.8648 17.08 33.0148 16.94 34.1548 16.66C35.3148 16.38 36.3448 16 37.2448 15.52L38.7448 20.56C37.6048 21.14 36.2048 21.61 34.5448 21.97C32.9048 22.31 31.2448 22.48 29.5648 22.48C26.4048 22.48 23.9348 21.96 22.1548 20.92C20.3948 19.88 19.5148 18.44 19.5148 16.6C19.5148 15.26 19.8948 14.11 20.6548 13.15C21.4348 12.19 22.4948 11.47 23.8348 10.99C23.2748 10.63 22.8548 10.18 22.5748 9.64C22.2948 9.08 22.1548 8.49 22.1548 7.87C22.1548 6.39 22.6148 5.1 23.5348 4C24.4748 2.88 25.7948 2.02 27.4948 1.42C29.2148 0.819999 31.2048 0.519999 33.4648 0.519999C35.0648 0.519999 36.5348 0.649999 37.8748 0.91C39.2348 1.17 40.3648 1.53 41.2648 1.99L39.0148 7.06C37.2948 6.3 35.2848 5.92 32.9848 5.92ZM53.6977 5.92C52.4377 5.92 51.4977 6.09 50.8777 6.43C50.2577 6.75 49.9477 7.19 49.9477 7.75C49.9477 8.45 50.6477 8.8 52.0477 8.8H57.8077L56.7577 14.02H49.8277C49.1277 14.02 48.5577 14.16 48.1177 14.44C47.6977 14.7 47.4877 15.07 47.4877 15.55C47.4877 16.05 47.7977 16.43 48.4177 16.69C49.0377 16.95 50.0377 17.08 51.4177 17.08C52.5777 17.08 53.7277 16.94 54.8677 16.66C56.0277 16.38 57.0577 16 57.9577 15.52L59.4577 20.56C58.3177 21.14 56.9177 21.61 55.2577 21.97C53.6177 22.31 51.9577 22.48 50.2777 22.48C47.1177 22.48 44.6477 21.96 42.8677 20.92C41.1077 19.88 40.2277 18.44 40.2277 16.6C40.2277 15.26 40.6077 14.11 41.3677 13.15C42.1477 12.19 43.2077 11.47 44.5477 10.99C43.9877 10.63 43.5677 10.18 43.2877 9.64C43.0077 9.08 42.8677 8.49 42.8677 7.87C42.8677 6.39 43.3277 5.1 44.2477 4C45.1877 2.88 46.5077 2.02 48.2077 1.42C49.9277 0.819999 51.9177 0.519999 54.1777 0.519999C55.7777 0.519999 57.2477 0.649999 58.5877 0.91C59.9477 1.17 61.0777 1.53 61.9777 1.99L59.7277 7.06C58.0077 6.3 55.9977 5.92 53.6977 5.92ZM90.0371 0.519999C92.0771 0.519999 93.7071 1.08 94.9271 2.2C96.1471 3.3 96.7571 4.88 96.7571 6.94C96.7571 7.74 96.6771 8.51 96.5171 9.25L93.9671 22H86.8871L89.3771 9.46C89.4371 9.12 89.4671 8.81 89.4671 8.53C89.4671 7.79 89.2471 7.23 88.8071 6.85C88.3871 6.45 87.7871 6.25 87.0071 6.25C86.0471 6.25 85.2171 6.55 84.5171 7.15C83.8371 7.73 83.3871 8.58 83.1671 9.7L80.7071 22H73.6271L76.1171 9.46C76.1971 8.98 76.2371 8.65 76.2371 8.47C76.2371 7.75 76.0371 7.2 75.6371 6.82C75.2571 6.44 74.7071 6.25 73.9871 6.25C73.0871 6.25 72.3171 6.55 71.6771 7.15C71.0371 7.73 70.6071 8.58 70.3871 9.7L67.9271 22H60.8471L65.0471 0.999999H71.8871L71.3771 3.49C72.9571 1.51 75.0871 0.519999 77.7671 0.519999C80.4271 0.519999 82.1971 1.47 83.0771 3.37C84.8971 1.47 87.2171 0.519999 90.0371 0.519999ZM109.025 22.48C106.885 22.48 105.005 22.09 103.385 21.31C101.785 20.51 100.545 19.4 99.6645 17.98C98.8045 16.56 98.3745 14.93 98.3745 13.09C98.3745 10.65 98.9345 8.48 100.055 6.58C101.195 4.66 102.765 3.17 104.765 2.11C106.785 1.05 109.065 0.519999 111.605 0.519999C113.745 0.519999 115.615 0.919999 117.215 1.72C118.835 2.5 120.075 3.6 120.935 5.02C121.815 6.44 122.255 8.07 122.255 9.91C122.255 12.35 121.685 14.53 120.545 16.45C119.425 18.35 117.855 19.83 115.835 20.89C113.835 21.95 111.565 22.48 109.025 22.48ZM109.625 16.75C110.745 16.75 111.715 16.46 112.535 15.88C113.375 15.3 114.015 14.52 114.455 13.54C114.895 12.56 115.115 11.49 115.115 10.33C115.115 9.09 114.745 8.1 114.005 7.36C113.285 6.62 112.285 6.25 111.005 6.25C109.885 6.25 108.905 6.54 108.065 7.12C107.245 7.7 106.615 8.48 106.175 9.46C105.735 10.44 105.515 11.51 105.515 12.67C105.515 13.91 105.875 14.9 106.595 15.64C107.335 16.38 108.345 16.75 109.625 16.75Z" fill="#E5D1FA"/>
</svg>
