<svg xmlns="http://www.w3.org/2000/svg" width="20" height="19" viewBox="0 0 20 19" fill="none">
  <path fill-rule="evenodd" clip-rule="evenodd" d="M1.87988 10.6273C1.87988 6.74065 5.85393 4 10.1807 4C11.0845 4 12.1512 4.28035 12.8451 4.46272C12.9008 4.47734 12.954 4.49133 13.0045 4.50449C13.539 4.64367 13.8594 5.18975 13.7203 5.72422C13.5811 6.25868 13.035 6.57912 12.5006 6.43995C12.469 6.43174 12.4373 6.42348 12.4055 6.41519C11.644 6.21659 10.8134 6 10.1807 6C6.44315 6 3.87988 8.29815 3.87988 10.6273C3.87988 11.9799 4.69753 13.2843 6.16485 14.183C6.55255 14.4204 6.73129 14.8895 6.59991 15.3247L6.31223 16.2778H7.23854L8.43302 15.3773C8.60647 15.2466 8.81777 15.1759 9.03497 15.1759H11.3263C11.5435 15.1759 11.7548 15.2466 11.9282 15.3773L13.1227 16.2778H14.049L13.7614 15.3247C13.63 14.8895 13.8088 14.4204 14.1965 14.183C15.0667 13.65 15.7143 12.9664 16.0917 12.2216C16.3413 11.729 16.943 11.532 17.4357 11.7816C17.9283 12.0312 18.1253 12.6329 17.8757 13.1256C17.4183 14.0283 16.7292 14.814 15.8878 15.4485L16.132 16.2575C16.132 16.2576 16.1321 16.2577 16.1321 16.2577C16.434 17.2578 15.6901 18.2778 14.6349 18.2778H12.9762C12.6368 18.2778 12.3067 18.1673 12.0356 17.9629C12.0356 17.9628 12.0355 17.9628 12.0355 17.9628L10.9916 17.1759H9.36966L8.32585 17.9627C8.05474 18.1672 7.72455 18.2778 7.38508 18.2778H5.72637C4.67104 18.2778 3.92731 17.2576 4.22916 16.2577C4.22916 16.2577 4.22916 16.2577 4.22916 16.2577L4.47351 15.4482C2.92357 14.2779 1.87988 12.585 1.87988 10.6273ZM14.2172 16.835C14.2173 16.8352 14.2174 16.8355 14.2174 16.8358L14.2174 16.8356L14.2172 16.835ZM13.2395 16.3658L13.2392 16.3656ZM7.12155 16.366C7.12162 16.3659 7.12169 16.3659 7.12175 16.3658Z" fill="#CCA6F4"/>
  <path fill-rule="evenodd" clip-rule="evenodd" d="M17.5778 3.97299C17.84 4.16632 17.9916 4.47522 17.9841 4.80088L17.9208 7.54652L19.2522 8.1059C19.6234 8.26186 19.8648 8.62521 19.8648 9.02784V12.3334C19.8648 12.706 19.6577 13.0477 19.3273 13.22L17.5164 14.1645C17.0268 14.4199 16.4228 14.23 16.1674 13.7403C15.912 13.2506 16.1019 12.6466 16.5916 12.3912L17.8648 11.7271V9.69237L16.518 9.1265C16.1391 8.96729 15.8962 8.59243 15.9056 8.18152L15.9518 6.17812L13.0707 7.14277C12.547 7.31811 11.9803 7.03571 11.8049 6.512C11.6296 5.98829 11.912 5.42159 12.4357 5.24625L16.6668 3.82958C16.9757 3.72616 17.3156 3.77967 17.5778 3.97299Z" fill="#CCA6F4"/>
  <path d="M13.6938 10.4444C13.4342 10.4444 13.2236 10.233 13.2236 9.97222C13.2236 9.71146 13.4342 9.5 13.6938 9.5C13.9534 9.5 14.1639 9.71146 14.1639 9.97222C14.1639 10.233 13.9534 10.4444 13.6938 10.4444Z" fill="black"/>
  <path fill-rule="evenodd" clip-rule="evenodd" d="M13.6938 10.5C13.9906 10.5 14.2236 10.2595 14.2236 9.97222C14.2236 9.68489 13.9906 9.44444 13.6938 9.44444C13.3969 9.44444 13.1639 9.68489 13.1639 9.97222C13.1639 10.2595 13.3969 10.5 13.6938 10.5ZM12.2236 9.97222C12.2236 9.16337 12.8777 8.5 13.6938 8.5C14.5098 8.5 15.1639 9.16337 15.1639 9.97222C15.1639 10.7811 14.5098 11.4444 13.6938 11.4444C12.8777 11.4444 12.2236 10.7811 12.2236 9.97222Z" fill="#CCA6F4"/>
  <path fill-rule="evenodd" clip-rule="evenodd" d="M1.99998 7.60528C1.99673 7.05578 1.55027 6.61133 1 6.61133C0.447715 6.61133 0 7.05904 0 7.61133H1C0 7.61133 5.96046e-08 7.61174 3.57628e-07 7.61217L1.43051e-06 7.61306L6.19888e-06 7.615L2.8789e-05 7.61954L0.00014621 7.63117L0.000835001 7.66434C0.00155836 7.69071 0.00289726 7.72559 0.00536335 7.76795C0.0102837 7.85247 0.0197598 7.96793 0.0380784 8.10594C0.0743314 8.37905 0.147206 8.75571 0.296813 9.16145C0.595926 9.97266 1.24624 10.9966 2.59198 11.4021C3.12078 11.5615 3.67863 11.262 3.83798 10.7332C3.99733 10.2044 3.69783 9.64653 3.16903 9.48719C2.63427 9.32604 2.34433 8.93333 2.17331 8.46954C2.08786 8.23778 2.0432 8.01236 2.02069 7.84276C2.00962 7.75941 2.00441 7.69337 2.00198 7.65171C2.00078 7.63098 2.00028 7.61661 2.00008 7.60951C2.00003 7.6075 2 7.60609 1.99998 7.60528Z" fill="#CCA6F4"/>
  <path fill-rule="evenodd" clip-rule="evenodd" d="M3.76172 4.36668C3.76172 1.97662 5.66147 0 8.05261 0C10.4437 0 12.3435 1.97662 12.3435 4.36668C12.3435 4.8726 12.2585 5.36065 12.1014 5.81551L10.211 5.16229C10.2964 4.91515 10.3435 4.64774 10.3435 4.36668C10.3435 3.03801 9.29649 2 8.05261 2C6.80872 2 5.76172 3.03801 5.76172 4.36668C5.76172 4.99933 6.00059 5.56907 6.3872 5.99169L4.91151 7.34164C4.19699 6.56056 3.76172 5.51271 3.76172 4.36668Z" fill="#CCA6F4"/>
</svg>