<svg width="44" height="44" viewBox="0 0 44 44" fill="none" xmlns="http://www.w3.org/2000/svg">
<path d="M22 0C19.1109 0 16.2501 0.569047 13.581 1.67465C10.9118 2.78025 8.48654 4.40076 6.44365 6.44365C2.31785 10.5695 0 16.1652 0 22C0 27.8348 2.31785 33.4305 6.44365 37.5563C8.48654 39.5992 10.9118 41.2197 13.581 42.3254C16.2501 43.431 19.1109 44 22 44C27.8348 44 33.4305 41.6822 37.5563 37.5563C41.6822 33.4305 44 27.8348 44 22C44 19.1109 43.431 16.2501 42.3254 13.581C41.2197 10.9118 39.5992 8.48654 37.5563 6.44365C35.5135 4.40076 33.0882 2.78025 30.419 1.67465C27.7499 0.569047 24.8891 0 22 0ZM11.154 35.816C12.1 33.836 17.864 31.9 22 31.9C26.136 31.9 31.9 33.836 32.846 35.816C29.854 38.192 26.092 39.6 22 39.6C17.908 39.6 14.146 38.192 11.154 35.816ZM35.992 32.626C32.846 28.798 25.212 27.5 22 27.5C18.788 27.5 11.154 28.798 8.008 32.626C5.764 29.7 4.4 26.004 4.4 22C4.4 12.298 12.298 4.4 22 4.4C31.702 4.4 39.6 12.298 39.6 22C39.6 26.004 38.236 29.7 35.992 32.626ZM22 8.8C17.732 8.8 14.3 12.232 14.3 16.5C14.3 20.768 17.732 24.2 22 24.2C26.268 24.2 29.7 20.768 29.7 16.5C29.7 12.232 26.268 8.8 22 8.8ZM22 19.8C21.1248 19.8 20.2854 19.4523 19.6665 18.8335C19.0477 18.2146 18.7 17.3752 18.7 16.5C18.7 15.6248 19.0477 14.7854 19.6665 14.1665C20.2854 13.5477 21.1248 13.2 22 13.2C22.8752 13.2 23.7146 13.5477 24.3335 14.1665C24.9523 14.7854 25.3 15.6248 25.3 16.5C25.3 17.3752 24.9523 18.2146 24.3335 18.8335C23.7146 19.4523 22.8752 19.8 22 19.8Z" fill="#E5D1FA"/>
</svg>
