<svg width="24" height="26" viewBox="0 0 24 26" fill="none" xmlns="http://www.w3.org/2000/svg">
<path d="M3.51563 10.9922C3.51562 11.915 3.69103 12.8289 4.03182 13.6815C4.37261 14.5341 4.87211 15.3087 5.50181 15.9613C6.1315 16.6138 6.87906 17.1315 7.7018 17.4846C8.52454 17.8378 9.40635 18.0196 10.2969 18.0196C11.1874 18.0196 12.0692 17.8378 12.8919 17.4846C13.7147 17.1315 14.4622 16.6138 15.0919 15.9613C15.7216 15.3087 16.2211 14.5341 16.5619 13.6815C16.9027 12.8289 17.0781 11.915 17.0781 10.9922C17.0781 10.0694 16.9027 9.15555 16.5619 8.30295C16.2211 7.45035 15.7216 6.67566 15.0919 6.02311C14.4622 5.37056 13.7147 4.85293 12.8919 4.49977C12.0692 4.14661 11.1874 3.96484 10.2969 3.96484C9.40635 3.96484 8.52454 4.14661 7.7018 4.49977C6.87906 4.85293 6.1315 5.37056 5.50181 6.02311C4.87211 6.67566 4.37261 7.45035 4.03182 8.30295C3.69103 9.15555 3.51562 10.0694 3.51563 10.9922Z" stroke="#CCA6F4" stroke-width="1.50586" stroke-linecap="round" stroke-linejoin="round"/>
<path d="M20.9531 22.0352L15.1406 16.0117" stroke="#CCA6F4" stroke-width="1.50586" stroke-linecap="round" stroke-linejoin="round"/>
</svg>
